<svg xmlns="http://www.w3.org/2000/svg" version="1.0" preserveAspectRatio="xMidYMid meet" viewBox="76.16 122.16 354.84 90.79">

<g transform="translate(0.000000,500.000000) scale(0.100000,-0.100000)" fill="#000000" stroke="none">
<path d="M1108 3769 c-113 -26 -243 -132 -293 -236 -15 -32 -34 -90 -43 -130 -14 -66 -14 -79 1 -156 20 -102 52 -166 116 -234 58 -62 106 -93 188 -123 53 -19 77 -22 161 -18 86 3 107 8 163 35 35 18 80 45 99 62 l35 29 -80 75 c-80 75 -80 75 -103 56 -37 -29 -118 -52 -154 -44 -162 35 -245 207 -170 354 50 99 145 148 239 122 26 -6 62 -23 79 -36 l32 -24 78 74 79 75 -35 30 c-42 37 -121 75 -181 89 -53 13 -160 12 -211 0z"/>
<path d="M1795 3682 c-284 -271 -366 -353 -361 -360 3 -5 103 -104 223 -219 l218 -211 79 72 78 72 -124 116 c-67 63 -136 127 -153 141 l-30 27 90 87 c50 49 119 115 154 147 l63 59 -59 56 c-107 102 -87 100 -178 13z"/>
<path d="M2166 3687 l-79 -73 64 -60 c35 -32 104 -98 154 -147 l90 -87 -25 -21 c-14 -12 -83 -75 -154 -142 l-129 -122 79 -72 79 -73 95 93 c52 52 153 150 224 218 l128 125 -152 150 c-84 82 -158 154 -165 159 -6 6 -38 36 -71 68 l-60 58 -78 -74z"/>
<path d="M2800 3324 l0 -426 208 4 c179 5 215 8 266 27 125 45 199 109 252 216 26 55 29 69 29 170 0 116 -13 168 -61 245 -52 84 -169 157 -289 179 -32 6 -137 11 -232 11 l-173 0 0 -426z m406 208 c90 -47 119 -97 119 -209 0 -74 -3 -85 -30 -124 -52 -74 -99 -100 -194 -106 l-81 -6 0 238 0 238 74 -6 c44 -3 89 -13 112 -25z"/>
<path d="M3670 3325 l0 -425 320 0 320 0 0 95 0 95 -210 0 -211 0 3 73 3 72 203 3 202 2 0 90 0 90 -202 2 -203 3 -3 68 -3 67 211 0 210 0 0 95 0 95 -320 0 -320 0 0 -425z"/>
</g>
</svg>