<?xml version="1.0" standalone="no"?>
<!DOCTYPE svg PUBLIC "-//W3C//DTD SVG 20010904//EN"
 "http://www.w3.org/TR/2001/REC-SVG-20010904/DTD/svg10.dtd">
<svg version="1.0" xmlns="http://www.w3.org/2000/svg"
 width="225.000000pt" height="225.000000pt" viewBox="0 0 225.000000 225.000000"
 preserveAspectRatio="xMidYMid meet">

<g transform="translate(0.000000,225.000000) scale(0.100000,-0.100000)"
fill="#000000" stroke="none">
<path d="M943 1655 c-76 -21 -145 -59 -180 -99 -38 -42 -73 -133 -73 -187 l0
-40 76 3 75 3 18 53 c33 98 92 133 221 133 103 0 153 -14 198 -55 33 -31 36
-39 40 -99 4 -62 3 -68 -24 -95 -27 -26 -39 -30 -169 -46 -270 -34 -330 -53
-410 -130 -65 -64 -90 -134 -83 -231 17 -203 195 -319 420 -275 76 14 180 67
232 117 30 30 39 34 47 22 5 -8 9 -20 9 -28 0 -29 41 -79 80 -96 30 -13 54
-16 100 -12 79 7 90 17 90 83 l0 53 -47 3 c-73 5 -73 1 -73 386 0 367 -1 376
-63 440 -68 72 -193 112 -342 111 -49 0 -114 -7 -142 -14z m375 -627 c-3 -57
-12 -119 -20 -138 -37 -89 -145 -151 -273 -158 -86 -5 -124 6 -173 51 -49 45
-51 153 -3 209 37 45 91 65 238 88 72 11 148 26 170 34 68 25 66 27 61 -86z"/>
</g>
</svg>
